<svg width="24" height="25" viewBox="0 0 24 25" fill="none" xmlns="http://www.w3.org/2000/svg">
<g id="ic:baseline-phone">
<path id="Vector" d="M6.62 11.29C8.06 14.12 10.38 16.43 13.21 17.88L15.41 15.68C15.68 15.41 16.08 15.32 16.43 15.44C17.55 15.81 18.76 16.01 20 16.01C20.55 16.01 21 16.46 21 17.01V20.5C21 21.05 20.55 21.5 20 21.5C10.61 21.5 3 13.89 3 4.5C3 3.95 3.45 3.5 4 3.5H7.5C8.05 3.5 8.5 3.95 8.5 4.5C8.5 5.75 8.7 6.95 9.07 8.07C9.18 8.42 9.1 8.81 8.82 9.09L6.62 11.29Z" fill="white"/>
</g>
</svg>
